<svg width="258" height="235" viewBox="0 0 258 235" fill="none" xmlns="http://www.w3.org/2000/svg">
<path d="M141.277 3.53059C154.466 2.50643 169.513 6.71201 181.963 11.631C194.413 16.55 205.899 24.3918 215.978 33.0444C226.056 41.6971 236.106 52.4314 242.436 63.5467C248.766 74.662 251.95 87.6135 253.957 99.7361C255.963 111.859 256.927 123.849 254.474 136.282C252.021 148.715 245.962 163.138 239.239 174.333C232.517 185.528 224.289 195.186 214.139 203.453C203.99 211.72 191.021 219.068 178.342 223.934C165.663 228.8 151.857 231.634 138.064 232.648C124.272 233.663 108.674 233.14 95.5868 230.02C82.4993 226.9 70.7598 220.838 59.5389 213.927C48.318 207.017 36.8362 198.385 28.2614 188.556C19.6867 178.728 12.1869 166.674 8.0903 154.956C3.99373 143.239 3.34155 130.595 3.68196 118.251C4.02237 105.908 5.66272 92.7293 10.1328 80.8968C14.6028 69.0643 21.7156 57.0115 30.5023 47.2564C39.2889 37.5014 51.1256 29.2739 62.8524 22.3664C74.5792 15.459 84.901 8.6217 100.863 5.81167C116.825 3.00165 146.403 4.30212 158.624 5.50627C170.846 6.71042 174.38 11.0234 174.193 13.0366M129.705 1.89136C142.704 0.243989 159.512 4.04905 172.453 8.49918C185.394 12.9493 196.885 21.1028 207.35 28.5922C217.816 36.0815 227.622 42.9145 235.246 53.4352C242.87 63.9559 250.038 79.0495 253.094 91.7164C256.151 104.383 254.973 117.217 253.587 129.436C252.201 141.655 250.549 154.195 244.777 165.031C239.005 175.866 228.33 185.267 218.954 194.45C209.579 203.633 200.46 213.862 188.524 220.129C176.587 226.395 160.764 230.162 147.334 232.046C133.904 233.93 121.111 233.526 107.944 231.432C94.7766 229.339 80.5451 225.618 68.3308 219.485C56.1165 213.352 44.0636 203.961 34.658 194.634C25.2524 185.307 17.4159 174.526 11.8973 163.525C6.37871 152.524 2.06258 141.041 1.54656 128.628C1.03054 116.215 4.88295 101.498 8.80117 89.046C12.7194 76.5939 17.9871 64.0571 25.0559 53.9147C32.1246 43.7722 40.7375 35.8915 51.2137 28.1915C61.6899 20.4914 74.5682 11.6462 87.9132 7.71444C101.258 3.78273 124.024 5.00794 131.284 4.60117C138.544 4.1944 131.91 3.65504 131.472 5.27381" stroke="#8D6E63" stroke-width="3"/>
</svg>
