<svg width="207" height="80" viewBox="0 0 207 80" fill="none" xmlns="http://www.w3.org/2000/svg">
<path d="M178.954 -0.295151C180.578 -0.30681 182.201 -0.327475 183.824 -0.356674C186.203 -0.39925 188.581 -0.415485 190.961 -0.425766C192.043 -0.452028 192.043 -0.452028 193.146 -0.478821C196.733 -0.463351 198.734 -0.083967 201.799 1.83913C204.918 5.09773 205.008 7.88859 205.149 12.2188C205.205 13.7405 205.205 13.7405 205.262 15.293C205.332 17.431 205.403 19.569 205.473 21.707C205.529 23.2288 205.529 23.2288 205.586 24.7813C205.617 25.71 205.647 26.6388 205.678 27.5957C205.782 30.1441 205.782 30.1441 206.868 33C207.103 36.9316 206.85 40.3534 205.883 44.1445C204.593 49.7494 204.486 55.253 204.389 60.9824C204.202 66.5916 203.256 70.8908 200.868 76C193.87 80.6649 183.184 79.1511 175.055 79.125C173.861 79.1289 172.666 79.1327 171.436 79.1367C164.728 79.1294 158.131 78.8391 151.452 78.2183C148.349 77.9563 145.293 77.9375 142.18 78C136.733 78.0523 131.33 77.9074 125.889 77.6443C114.937 77.122 104.002 76.9127 93.0394 76.9375C92.3686 76.939 91.6978 76.9404 91.0067 76.9419C86.2102 76.954 81.4139 76.9761 76.6175 77C72.4145 77.0206 68.2115 77.0396 64.0085 77.051C61.4208 77.0585 58.8332 77.0705 56.2456 77.0877C55.0854 77.091 53.9252 77.0943 52.7298 77.0977C51.7149 77.1029 50.7 77.1081 49.6543 77.1135C46.946 77.0032 44.5139 76.5568 41.8675 76C38.998 75.9178 36.1541 75.8835 33.2855 75.9024C32.4713 75.9038 31.6571 75.9052 30.8183 75.9066C28.2305 75.9122 25.6428 75.9248 23.055 75.9375C21.2953 75.9425 19.5355 75.9471 17.7757 75.9512C13.473 75.9622 9.17026 75.9794 4.86753 76C3.2886 72.4828 2.59814 69.6438 2.48863 65.7969C2.45447 64.8159 2.42031 63.8349 2.38511 62.8242C2.35868 61.8097 2.33226 60.7952 2.30503 59.75C2.11477 53.4755 1.84018 47.293 1.0836 41.0601C0.0974784 31.658 -1.41088 13.5568 2.86753 5.00002C10.2793 3.7059 10.2793 3.7059 12.8675 5.00002C12.8675 4.34002 12.8675 3.68002 12.8675 3.00002C14.3039 2.80428 15.7417 2.61874 17.18 2.43752C17.9805 2.3331 18.781 2.22869 19.6058 2.12111C21.8675 2.00002 21.8675 2.00002 24.8675 3.00002C26.5389 2.89006 28.2067 2.7175 29.8675 2.50002C33.1425 2.07116 34.6772 1.93658 37.8675 3.00002C39.3026 3.09295 40.7419 3.12998 42.18 3.12502C43.288 3.12888 43.288 3.12888 44.4183 3.13283C46.9209 3.05039 46.9209 3.05039 49.5561 2.49782C53.1898 1.95157 56.6251 1.88749 60.2997 1.90236C61.0194 1.90382 61.7392 1.90528 62.4808 1.90678C64.0374 1.91057 65.5941 1.91667 67.1507 1.92485C69.635 1.93773 72.1193 1.94416 74.6037 1.94899C80.7857 1.9623 86.9677 1.98625 93.1497 2.01039C124.833 2.15466 124.833 2.15466 156.461 0.457047C163.953 -0.150134 171.441 -0.257569 178.954 -0.295151Z" fill="#A78963"/>
</svg>
